# xmcd
#
# Track frame offsets: 
#        150
#        16321
#        29139
#        48496
#        66603
#        81957
#        96083
#        111115
#        127466
#        144592
#
# Disc length: 2183 seconds
#
# Revision: 1
# Processed by: cddbd v1.5.2PL0 Copyright (c) Steve Scherf et al.
# Submitted via: ExactAudioCopyFreeDBPlugin 1.0
#
DISCID=9908850a
DTITLE=Travis Tritt - Super Hits
DYEAR=2007
DGENRE=Country
TTITLE0=Honky-Tonk History
TTITLE1=The Girl's Gone Wild
TTITLE2=Best of Intentions
TTITLE3=It's a Great Day to Be Alive
TTITLE4=Too Far to Turn Around
TTITLE5=I Can't Seem to Get Over You
TTITLE6=What Say You (feat. John Mellencamp)
TTITLE7=Love of a Woman
TTITLE8=Strong Enough to Be Your Man
TTITLE9=Country Ain't Country
EXTD=
EXTT0=
EXTT1=
EXTT2=
EXTT3=
EXTT4=
EXTT5=
EXTT6=
EXTT7=
EXTT8=
EXTT9=
PLAYORDER=
